<svg width="450" height="424" viewBox="0 0 450 424" fill="none" xmlns="http://www.w3.org/2000/svg">
<path d="M329.962 225.41L327.664 247.651L338.069 230.429L338.497 226.291L343.669 226.826L339.928 263.033L334.756 262.499L337.054 240.257L326.649 257.479L326.221 261.617L321.049 261.082L324.79 224.875L329.962 225.41ZM341.4 218.436C341.293 219.471 341.031 220.315 340.615 220.969C340.237 221.592 339.839 222.074 339.42 222.414C338.853 222.843 338.143 223.136 337.291 223.292C336.438 223.447 335.512 223.474 334.512 223.37C333.512 223.267 332.611 223.052 331.808 222.725C331.005 222.398 330.37 221.967 329.903 221.43C329.563 221.012 329.254 220.457 328.977 219.766C328.738 219.045 328.672 218.167 328.779 217.132L328.843 216.511L332.981 216.939L332.933 217.404C332.911 217.611 332.921 217.856 332.961 218.139C333.005 218.388 333.153 218.647 333.404 218.917C333.624 219.149 333.851 219.312 334.085 219.405C334.358 219.468 334.632 219.514 334.908 219.543C335.183 219.571 335.444 219.581 335.689 219.571C335.972 219.531 336.245 219.419 336.507 219.238C336.808 219.025 337.006 218.801 337.099 218.567C337.197 218.298 337.256 218.06 337.278 217.853L337.326 217.388L341.464 217.815L341.4 218.436Z" fill="white"/>
<path d="M55.2421 156.779L48.2203 194.049L64.9362 197.199L71.958 159.928L84.3402 162.261L68.0104 248.936L55.6282 246.604L62.8366 208.343L46.1207 205.193L38.9123 243.454L26.5301 241.121L42.8599 154.446L55.2421 156.779Z" fill="white"/>
<path d="M122.168 252.05L121.484 234.861L107.371 232.34L100.778 248.229L89.7528 246.259L120.409 172.094L130.111 173.827L133.193 254.019L122.168 252.05ZM121.199 194.421L110.226 222.725L121.913 224.812L121.199 194.421Z" fill="white"/>
<path d="M191.106 242.751L188.467 260.375L180.011 259.109L181.451 249.496L158.487 246.057L157.047 255.67L148.592 254.404L151.23 236.78L155.414 237.407C156.751 235.362 157.988 233.181 159.124 230.864C160.259 228.547 161.278 225.999 162.179 223.222C162.855 221.139 163.525 218.692 164.188 215.879C164.92 213.016 165.581 210.021 166.171 206.893C166.76 203.766 167.32 200.635 167.851 197.499C168.39 194.303 168.864 191.341 169.272 188.611L169.952 184.072L194.162 187.697L186.032 241.991L191.106 242.751ZM177.119 193.335L176.386 198.231C175.818 202.028 175.247 205.431 174.676 208.44C174.113 211.389 173.565 214.037 173.031 216.384C172.498 218.731 171.975 220.806 171.462 222.61C170.958 224.355 170.485 225.892 170.043 227.221C169.368 229.304 168.582 231.31 167.686 233.238C166.859 235.116 165.772 237.107 164.426 239.211L177.065 241.104L184.062 194.375L177.119 193.335Z" fill="white"/>
<path d="M214.122 197.962L239.089 201.7L237.893 209.686L221.333 207.206L218.74 224.523L233.367 226.713L232.234 234.279L217.607 232.089L214.913 250.078L231.726 252.596L230.53 260.582L205.311 256.806L214.122 197.962Z" fill="white"/>
<path d="M264.99 208.355C265.541 208.438 266.214 208.564 267.008 208.734C267.802 208.905 268.635 209.157 269.507 209.493C270.386 209.778 271.251 210.164 272.1 210.65C272.957 211.085 273.767 211.668 274.528 212.396C275.603 213.428 276.384 214.544 276.871 215.744C277.364 216.894 277.679 218.043 277.815 219.19C277.95 220.337 277.964 221.441 277.857 222.501C277.749 223.561 277.639 224.466 277.527 225.218C277.264 226.972 276.91 228.481 276.465 229.746C276.026 230.962 275.22 232.07 274.045 233.073C273.454 233.599 272.878 234.025 272.317 234.351C271.763 234.627 271.267 234.86 270.829 235.05C271.764 235.651 272.436 236.29 272.848 236.966C273.309 237.65 273.673 238.294 273.942 238.898C274.498 240.313 274.755 241.504 274.713 242.471C274.728 243.396 274.642 244.484 274.454 245.737L273.858 249.721C273.775 250.272 273.642 250.995 273.456 251.889C273.271 252.784 272.953 253.709 272.503 254.667C272.102 255.631 271.497 256.591 270.688 257.546C269.929 258.508 268.935 259.332 267.705 260.019C266.756 260.543 265.517 260.947 263.989 261.23C262.511 261.521 260.644 261.498 258.389 261.16L246.965 259.45L254.843 206.836L264.99 208.355ZM259.095 229.759L262.703 230.299C264.006 230.494 265.063 230.447 265.875 230.159C266.694 229.82 267.338 229.456 267.806 229.065C268.34 228.581 268.792 227.957 269.162 227.193C269.533 226.429 269.782 225.621 269.909 224.769L270.393 221.537C270.498 220.835 270.446 220.161 270.235 219.515C270.082 218.826 269.839 218.226 269.505 217.715C269.122 217.197 268.556 216.702 267.806 216.231C267.107 215.768 266.131 215.443 264.879 215.255L261.346 214.726L259.095 229.759ZM255.494 253.81L258.876 254.317C259.427 254.399 260.219 254.415 261.251 254.365C262.341 254.272 263.369 253.734 264.336 252.752C264.704 252.346 265.026 251.908 265.302 251.437C265.585 250.915 265.789 250.408 265.914 249.914C266.089 249.428 266.207 248.985 266.267 248.584C266.377 248.191 266.451 247.869 266.488 247.618L266.859 245.138C267.055 243.835 267.094 242.714 266.979 241.774C266.871 240.785 266.443 239.876 265.697 239.046C264.729 237.979 263.469 237.33 261.916 237.097L258.082 236.523L255.494 253.81Z" fill="white"/>
<path d="M302.489 261.205L301.375 251.439L293.226 250.597L290.139 259.929L283.773 259.271L298.117 215.715L303.719 216.294L308.855 261.863L302.489 261.205ZM299.508 228.405L294.448 244.997L301.196 245.694L299.508 228.405Z" fill="white"/>
</svg>
