<svg width="534" height="512" viewBox="0 0 534 512" fill="none" xmlns="http://www.w3.org/2000/svg">
<path d="M177.778 85.6854L146.759 107.508L156.547 121.42L187.565 99.5973L194.815 109.902L122.68 160.653L115.43 150.348L147.272 127.945L137.485 114.033L105.642 136.436L98.3917 126.131L170.527 75.3803L177.778 85.6854Z" fill="white"/>
<path d="M157.286 202.142L169.394 188.658L160.587 176.387L143.937 183.545L137.056 173.959L214.688 140.461L220.743 148.897L164.166 211.729L157.286 202.142ZM198.884 157.905L169.807 171.222L177.1 181.384L198.884 157.905Z" fill="white"/>
<path d="M215.237 242.041L201.058 252.835L195.879 246.032L203.613 240.144L189.548 221.669L181.814 227.557L176.635 220.754L190.814 209.96L193.376 213.325C195.76 212.792 198.167 212.091 200.597 211.221C203.027 210.352 205.533 209.236 208.115 207.873C210.052 206.851 212.239 205.563 214.676 204.01C217.196 202.468 219.758 200.781 222.361 198.95C224.964 197.12 227.549 195.265 230.115 193.387C232.73 191.472 235.135 189.678 237.331 188.006L240.983 185.226L255.812 204.704L212.13 237.959L215.237 242.041ZM239.663 196.864L235.724 199.862C232.669 202.188 229.887 204.23 227.38 205.989C224.92 207.71 222.681 209.226 220.663 210.537C218.644 211.848 216.822 212.971 215.197 213.906C213.619 214.806 212.209 215.578 210.965 216.223C209.029 217.245 207.067 218.135 205.08 218.893C203.178 219.663 201.011 220.333 198.579 220.902L206.32 231.071L243.915 202.45L239.663 196.864Z" fill="white"/>
<path d="M262.964 225.979L278.256 246.065L271.831 250.957L261.688 237.633L247.756 248.24L256.715 260.008L250.628 264.642L241.669 252.874L227.196 263.892L237.494 277.418L231.069 282.31L215.622 262.02L262.964 225.979Z" fill="white"/>
<path d="M291.729 267.411C292.067 267.854 292.461 268.414 292.912 269.09C293.362 269.765 293.783 270.527 294.174 271.376C294.606 272.194 294.957 273.073 295.227 274.013C295.538 274.923 295.712 275.905 295.75 276.958C295.801 278.448 295.583 279.792 295.095 280.991C294.647 282.16 294.072 283.202 293.369 284.12C292.667 285.037 291.907 285.838 291.091 286.522C290.275 287.207 289.565 287.78 288.96 288.24C287.549 289.314 286.243 290.15 285.042 290.746C283.88 291.312 282.529 291.544 280.988 291.444C280.197 291.409 279.487 291.313 278.858 291.155C278.269 290.967 277.751 290.788 277.304 290.619C277.555 291.702 277.592 292.629 277.415 293.4C277.269 294.212 277.081 294.928 276.853 295.547C276.265 296.95 275.619 297.983 274.914 298.647C274.281 299.32 273.46 300.041 272.452 300.808L269.247 303.248C268.804 303.586 268.204 304.01 267.447 304.523C266.691 305.035 265.818 305.477 264.827 305.849C263.868 306.261 262.765 306.527 261.519 306.648C260.304 306.808 259.017 306.706 257.656 306.341C256.61 306.055 255.441 305.48 254.148 304.618C252.885 303.796 251.564 302.478 250.182 300.664L243.185 291.473L285.514 259.247L291.729 267.411ZM272.581 278.645L274.791 281.548C275.589 282.596 276.38 283.299 277.162 283.659C277.986 283.987 278.701 284.174 279.31 284.221C280.029 284.246 280.788 284.114 281.587 283.824C282.385 283.535 283.127 283.129 283.813 282.607L286.413 280.628C286.977 280.198 287.409 279.678 287.709 279.068C288.079 278.468 288.323 277.868 288.441 277.269C288.527 276.63 288.466 275.881 288.257 275.021C288.079 274.201 287.606 273.288 286.839 272.28L284.675 269.438L272.581 278.645ZM253.231 293.377L255.303 296.098C255.64 296.541 256.196 297.105 256.972 297.788C257.818 298.481 258.93 298.813 260.308 298.783C260.855 298.748 261.391 298.658 261.917 298.513C262.483 298.336 262.983 298.115 263.417 297.848C263.881 297.622 264.275 297.386 264.597 297.14C264.951 296.935 265.228 296.756 265.43 296.602L267.425 295.083C268.473 294.285 269.283 293.509 269.856 292.755C270.468 291.971 270.796 291.021 270.838 289.906C270.889 288.466 270.438 287.122 269.487 285.872L267.139 282.788L253.231 293.377Z" fill="white"/>
<path d="M282.356 332.712L288.366 324.934L283.111 318.649L274.392 323.187L270.286 318.277L310.937 297.053L314.549 301.374L286.461 337.622L282.356 332.712ZM303.087 307.12L287.892 315.487L292.243 320.691L303.087 307.12Z" fill="white"/>
<path d="M327.195 324.711L309.052 339.88L329.641 334.495L333.016 331.673L336.544 335.892L307.008 360.587L303.48 356.368L321.624 341.198L301.035 346.583L297.659 349.406L294.131 345.186L323.667 320.491L327.195 324.711ZM341.01 327.857C340.166 328.563 339.345 329.01 338.547 329.199C337.801 329.393 337.144 329.464 336.576 329.413C335.829 329.321 335.075 329.019 334.314 328.509C333.553 327.998 332.831 327.335 332.149 326.519C331.467 325.704 330.942 324.876 330.574 324.036C330.207 323.196 330.044 322.401 330.085 321.65C330.135 321.081 330.31 320.433 330.61 319.705C330.961 318.982 331.558 318.267 332.402 317.561L332.908 317.138L335.73 320.514L335.351 320.831C335.182 320.972 335.009 321.165 334.831 321.409C334.681 321.63 334.601 321.936 334.593 322.325C334.588 322.663 334.641 322.954 334.749 323.198C334.909 323.447 335.083 323.684 335.271 323.909C335.459 324.134 335.65 324.333 335.843 324.506C336.087 324.684 336.376 324.801 336.709 324.857C337.094 324.917 337.409 324.893 337.653 324.785C337.925 324.653 338.145 324.517 338.314 324.376L338.694 324.058L341.516 327.434L341.01 327.857Z" fill="white"/>
</svg>
