<svg width="415" height="412" viewBox="0 0 415 412" fill="none" xmlns="http://www.w3.org/2000/svg">
<path d="M205.351 81.4288L119.255 100.577L116.519 88.2777L191.546 71.5913L187.99 55.602L112.963 72.2884L110.228 59.989L196.324 40.8405L205.351 81.4288Z" fill="white"/>
<path d="M208.377 112.243L171.517 132.437L171.597 132.781C172.706 132.685 173.976 132.592 175.409 132.502C176.918 132.393 178.427 132.285 179.937 132.176C181.54 132.127 183.106 132.086 184.633 132.054C186.16 132.023 187.525 131.988 188.728 131.951L212.89 131.667L215.641 143.506L157.523 142.593C155.158 142.497 152.726 142.456 150.226 142.472C147.802 142.469 145.429 142.334 143.105 142.066C140.876 141.858 138.747 141.383 136.717 140.643C134.782 139.962 133.121 138.894 131.733 137.44C130.251 135.927 129.199 134.354 128.578 132.722C128.05 131.148 127.609 129.595 127.253 128.063L126.291 123.925L137.21 121.388L137.878 124.261C138.43 126.637 139.491 128.248 141.061 129.095C141.627 129.448 142.462 129.738 143.565 129.967C144.668 130.195 145.62 130.297 146.422 130.272L153.551 130.19L205.333 99.1397L208.377 112.243Z" fill="white"/>
<path d="M146.625 196.145L161.249 189.349L158.336 176.228L142.21 176.26L139.934 166.009L215.169 165.761L217.171 174.782L148.901 206.396L146.625 196.145ZM196.136 174.504L167.687 175.228L170.099 186.093L196.136 174.504Z" fill="white"/>
<path d="M221.245 212.974L193.585 220.227L196.838 232.633L224.498 225.38L226.908 234.569L162.582 251.436L160.173 242.247L188.568 234.801L185.315 222.396L156.92 229.841L154.51 220.652L218.836 203.785L221.245 212.974Z" fill="white"/>
<path d="M232.546 275.824L224.735 277.872L222.061 267.676L172.318 280.719L170.162 272.497L219.905 259.454L217.232 249.259L225.043 247.211L232.546 275.824Z" fill="white"/>
<path d="M233.44 295.627L212.966 301.223L213.935 304.768C214.133 305.491 214.319 306.269 214.495 307.102C214.719 307.922 214.853 308.793 214.898 309.714C214.99 310.621 214.962 311.562 214.814 312.536C214.678 313.557 214.337 314.584 213.789 315.615C213.276 316.584 212.67 317.398 211.968 318.056C211.315 318.701 210.629 319.225 209.91 319.629C209.239 320.02 208.566 320.307 207.891 320.492C207.277 320.711 206.729 320.887 206.247 321.019L200.314 322.64C199.06 322.983 197.701 323.225 196.236 323.366C194.833 323.542 193.276 323.345 191.566 322.776C190.943 322.583 190.263 322.277 189.526 321.856C188.851 321.471 188.153 320.91 187.434 320.173C186.775 319.472 186.106 318.541 185.426 317.379C184.807 316.252 184.273 314.869 183.825 313.229L180.82 302.232L231.463 288.393L233.44 295.627ZM189.309 307.687L190.198 310.943C190.33 311.425 190.536 311.991 190.817 312.64C191.16 313.324 191.658 313.913 192.311 314.409C193.027 314.939 193.932 315.313 195.029 315.532C196.173 315.738 197.638 315.597 199.423 315.109L202.172 314.358C203.426 314.015 204.454 313.604 205.256 313.126C206.107 312.634 206.758 311.886 207.209 310.882C207.787 309.584 207.872 308.187 207.463 306.692L206.455 303.002L189.309 307.687ZM241.586 325.435L190.943 339.274L188.966 332.039L239.609 318.2L241.586 325.435Z" fill="white"/>
</svg>
