<svg width="574" height="573" viewBox="0 0 574 573" fill="none" xmlns="http://www.w3.org/2000/svg">
<path d="M193.294 204.202L149.795 280.93L138.834 274.716L176.74 207.853L162.491 199.775L124.585 266.637L113.624 260.423L157.122 183.696L193.294 204.202Z" fill="white"/>
<path d="M218.19 222.611L208.469 263.501L208.779 263.672C209.45 262.785 210.233 261.78 211.126 260.656C212.057 259.463 212.988 258.271 213.919 257.078C214.958 255.855 215.977 254.666 216.977 253.511C217.977 252.356 218.866 251.32 219.645 250.403L235.63 232.281L246.259 238.175L206.626 280.694C204.969 282.384 203.309 284.162 201.645 286.027C200.019 287.824 198.328 289.495 196.572 291.04C194.922 292.554 193.143 293.816 191.234 294.826C189.431 295.806 187.525 296.323 185.516 296.378C183.399 296.464 181.527 296.19 179.899 295.557C178.378 294.894 176.93 294.181 175.554 293.418L171.839 291.358L177.275 281.554L179.855 282.985C181.987 284.167 183.894 284.46 185.574 283.863C186.216 283.679 186.991 283.254 187.9 282.588C188.809 281.923 189.523 281.284 190.042 280.673L194.76 275.328L206.425 216.087L218.19 222.611Z" fill="white"/>
<path d="M239.063 324.676L243.822 309.268L232.132 302.635L221.346 314.624L212.214 309.442L262.458 253.444L270.495 258.004L248.195 329.858L239.063 324.676ZM256.19 273.428L237.657 295.026L247.338 300.518L256.19 273.428Z" fill="white"/>
<path d="M301.569 280.58L288.411 305.968L299.798 311.869L312.956 286.481L321.39 290.853L290.791 349.895L282.356 345.523L295.864 319.46L284.477 313.559L270.97 339.622L262.535 335.251L293.134 276.209L301.569 280.58Z" fill="white"/>
<path d="M355.783 314.321L352.068 321.49L342.71 316.64L319.047 362.298L311.501 358.386L335.163 312.729L325.805 307.879L329.521 300.71L355.783 314.321Z" fill="white"/>
<path d="M371.08 326.931L361.508 345.875L364.788 347.532C365.458 347.87 366.16 348.253 366.897 348.681C367.655 349.065 368.391 349.549 369.104 350.133C369.84 350.673 370.519 351.324 371.142 352.087C371.81 352.872 372.342 353.814 372.74 354.911C373.116 355.941 373.313 356.937 373.332 357.899C373.372 358.816 373.302 359.676 373.119 360.48C372.96 361.24 372.722 361.932 372.406 362.557C372.158 363.16 371.921 363.684 371.696 364.13L368.922 369.62C368.336 370.78 367.604 371.951 366.727 373.132C365.917 374.292 364.728 375.315 363.159 376.203C362.599 376.536 361.915 376.835 361.109 377.1C360.37 377.343 359.487 377.485 358.458 377.525C357.496 377.544 356.356 377.416 355.038 377.142C353.787 376.846 352.403 376.315 350.886 375.548L340.711 370.407L364.385 323.548L371.08 326.931ZM350.449 367.765L353.461 369.287C353.907 369.512 354.465 369.738 355.135 369.964C355.872 370.169 356.644 370.194 357.449 370.041C358.322 369.866 359.207 369.445 360.104 368.778C361.024 368.066 361.901 366.885 362.735 365.233L364.021 362.69C364.607 361.529 364.991 360.491 365.174 359.575C365.379 358.614 365.26 357.63 364.817 356.622C364.241 355.323 363.262 354.323 361.878 353.625L358.464 351.9L350.449 367.765ZM398.659 340.865L374.985 387.724L368.29 384.342L391.965 337.483L398.659 340.865Z" fill="white"/>
</svg>
