<svg width="987" height="961" viewBox="0 0 987 961" fill="none" xmlns="http://www.w3.org/2000/svg">
<path d="M152.116 854.002L252.453 871.681L249.924 886.015L162.488 870.608L159.2 889.241L246.637 904.648L244.108 918.981L143.771 901.302L152.116 854.002Z" fill="white"/>
<path d="M157.535 830.618L162.286 809.577C162.626 808.071 163.035 806.481 163.512 804.807C163.989 803.133 164.654 801.502 165.507 799.912C166.267 798.301 167.298 796.8 168.602 795.409C169.832 793.903 171.382 792.518 173.251 791.252C177.271 788.785 181.392 787.625 185.613 787.773C189.855 787.827 193.814 788.262 197.488 789.079L200.314 789.708C201.728 790.022 203.271 790.415 204.946 790.886C206.526 791.336 208.158 791.996 209.842 792.865C211.547 793.64 213.199 794.65 214.798 795.895C216.324 797.025 217.728 798.475 219.011 800.243C220.388 802.032 221.403 803.89 222.057 805.815C222.637 807.625 223.019 809.44 223.202 811.26C223.384 813.08 223.379 814.859 223.184 816.595C222.99 818.332 222.723 819.953 222.383 821.46L220.502 829.791L259.647 838.497L256.459 852.619L157.535 830.618ZM207.783 826.963L209.505 819.337C209.803 818.019 209.954 816.471 209.96 814.692C209.893 812.799 209.228 810.921 207.967 809.058C206.705 807.196 205.237 806.029 203.563 805.558C201.909 804.992 200.188 804.51 198.398 804.112L191.897 802.667C190.201 802.289 188.238 802.001 186.007 801.802C183.777 801.602 181.637 802.313 179.589 803.934C177.909 805.241 176.751 806.862 176.117 808.797C175.503 810.638 174.984 812.5 174.559 814.383L173.443 819.325L207.783 826.963Z" fill="white"/>
<path d="M176.794 748.313L237.255 764.284L194.171 728.084L182.923 725.112L186.637 711.052L285.062 737.052L281.348 751.113L220.887 735.141L263.971 771.341L275.219 774.313L271.505 788.374L173.08 762.373L176.794 748.313Z" fill="white"/>
<path d="M197.522 674.821L231.535 673.356L204.57 652.493L209.385 637.237L249.242 670.405L307.078 665.937L302.438 680.638L263.017 683.293L294.077 707.127L289.262 722.382L244.383 685.799L192.882 689.522L197.522 674.821Z" fill="white"/>
<path d="M240.787 628.385C237.152 627.034 233.788 625.371 230.695 623.395C227.511 621.385 224.982 618.17 223.107 613.75C221.975 610.951 221.37 607.985 221.292 604.854C221.248 601.631 221.885 598.248 223.201 594.703C224.518 591.158 226.228 588.225 228.331 585.904C230.468 583.492 232.88 581.595 235.565 580.213C239.87 578.089 243.885 577.305 247.609 577.861C251.241 578.383 254.876 579.319 258.511 580.669L303.772 597.482C307.408 598.832 310.817 600.512 314.001 602.522C317.094 604.498 319.577 607.696 321.452 612.116C322.584 614.915 323.172 617.926 323.216 621.149C323.294 624.281 322.675 627.619 321.358 631.163C320.042 634.708 318.315 637.686 316.178 640.099C314.074 642.42 311.68 644.272 308.995 645.653C304.689 647.777 300.72 648.578 297.087 648.056C293.364 647.5 289.684 646.547 286.049 645.197L240.787 628.385ZM251.402 593.543C249.948 593.003 248.472 592.661 246.973 592.518C245.418 592.251 243.768 592.517 242.023 593.317C241.025 593.774 240.018 594.537 239 595.607C238.016 596.586 237.203 597.939 236.562 599.666C235.92 601.393 235.636 602.993 235.708 604.468C235.815 605.852 236.097 607.043 236.554 608.04C237.353 609.785 238.413 611.11 239.732 612.013C240.994 612.792 242.352 613.452 243.806 613.992L293.157 632.324C294.612 632.864 296.116 633.268 297.672 633.535C299.17 633.678 300.792 633.349 302.537 632.55C303.534 632.093 304.525 631.375 305.509 630.396C306.527 629.326 307.357 627.927 307.998 626.201C308.639 624.474 308.907 622.918 308.801 621.534C308.728 620.059 308.463 618.823 308.006 617.826C307.206 616.081 306.175 614.819 304.913 614.04C303.594 613.136 302.208 612.414 300.753 611.874L251.402 593.543Z" fill="white"/>
<path d="M347.875 529.788L374.22 541.412L368.643 554.052L354.273 547.712L339.127 582.04L353.497 588.38L347.92 601.021L321.575 589.397L324.334 583.143C321.718 580.187 318.845 577.331 315.717 574.573C312.589 571.815 309.053 569.142 305.108 566.554C302.149 564.613 298.62 562.526 294.518 560.292C290.368 557.931 285.981 555.625 281.358 553.373C276.735 551.121 272.092 548.914 267.43 546.751C262.679 544.549 258.263 542.548 254.183 540.747L247.397 537.753L263.365 501.562L344.529 537.372L347.875 529.788ZM264.891 530.53L272.209 533.759C277.886 536.263 282.947 538.602 287.393 540.776C291.749 542.91 295.643 544.893 299.074 546.724C302.505 548.556 305.517 550.256 308.11 551.824C310.615 553.353 312.809 554.745 314.692 556C317.651 557.941 320.442 560.02 323.067 562.238C325.642 564.328 328.282 566.87 330.987 569.865L339.324 550.972L269.469 520.151L264.891 530.53Z" fill="white"/>
<path d="M281.888 461.701L337.324 490.493L303.501 445.918L293.187 440.561L300.035 427.749L390.28 474.621L383.432 487.433L327.996 458.64L361.819 503.216L372.133 508.573L365.285 521.385L275.04 474.513L281.888 461.701Z" fill="white"/>
<path d="M364.434 328.255L375.79 336.015L365.585 350.786L437.905 400.205L429.675 412.116L357.355 362.697L347.15 377.467L335.794 369.707L364.434 328.255Z" fill="white"/>
<path d="M477.338 349.606L457.319 339.699L445.671 354.219L459.684 371.613L450.583 382.957L385.099 301.899L393.108 291.916L486.439 338.262L477.338 349.606ZM411.042 314.88L436.485 344.986L446.131 332.961L411.042 314.88Z" fill="white"/>
<path d="M434.224 245.062L465.476 275.781L479.164 261.677L447.912 230.958L458.051 220.511L530.73 291.95L520.591 302.398L488.508 270.862L474.82 284.966L506.902 316.502L496.763 326.949L424.085 255.51L434.224 245.062Z" fill="white"/>
<path d="M479.333 201.095L490.482 191.756L547.449 259.761L561.384 248.087L504.417 180.082L515.565 170.743L572.533 238.748L579.445 232.958L597.935 255.032L587.345 263.904L577.259 251.864L544.705 279.133L479.333 201.095Z" fill="white"/>
<path d="M543.45 150.159L579.354 126.148L587.034 137.632L563.219 153.559L579.873 178.462L600.908 164.395L608.184 175.275L587.149 189.342L604.45 215.212L628.627 199.043L636.308 210.528L600.041 234.781L543.45 150.159Z" fill="white"/>
<path d="M618.557 104.121C619.488 103.601 620.654 103.004 622.055 102.332C623.457 101.66 625.014 101.067 626.726 100.554C628.391 99.9569 630.151 99.5286 632.006 99.2696C633.813 98.9259 635.72 98.8597 637.726 99.0712C640.561 99.3746 643.05 100.15 645.19 101.397C647.284 102.559 649.105 103.929 650.653 105.507C652.202 107.085 653.515 108.739 654.593 110.469C655.671 112.199 656.565 113.699 657.275 114.968C658.93 117.93 660.161 120.63 660.968 123.067C661.727 125.419 661.805 128.042 661.2 130.934C660.922 132.423 660.548 133.742 660.08 134.892C659.565 135.958 659.087 136.891 658.647 137.693C660.765 137.508 662.531 137.687 663.945 138.23C665.444 138.725 666.75 139.273 667.862 139.872C670.362 141.363 672.145 142.865 673.213 144.379C674.319 145.76 675.463 147.509 676.645 149.625L680.406 156.353C680.926 157.284 681.57 158.535 682.337 160.105C683.104 161.676 683.706 163.449 684.144 165.426C684.667 167.355 684.875 169.516 684.769 171.908C684.746 174.253 684.206 176.665 683.149 179.144C682.325 181.049 680.922 183.11 678.941 185.328C677.044 187.499 674.192 189.649 670.384 191.777L651.088 202.562L601.419 113.7L618.557 104.121ZM634.691 143.419L640.784 140.013C642.985 138.783 644.53 137.475 645.421 136.088C646.265 134.617 646.813 133.311 647.064 132.171C647.305 130.815 647.259 129.341 646.925 127.75C646.592 126.16 646.023 124.645 645.218 123.206L642.167 117.748C641.505 116.563 640.636 115.605 639.561 114.873C638.523 114.009 637.452 113.386 636.35 113.002C635.162 112.667 633.726 112.581 632.041 112.745C630.44 112.862 628.582 113.512 626.466 114.695L620.5 118.03L634.691 143.419ZM657.396 184.042L663.109 180.849C664.04 180.328 665.257 179.426 666.761 178.141C668.301 176.725 669.228 174.707 669.542 172.088C669.624 171.043 669.598 170.002 669.463 168.967C669.281 167.847 668.996 166.84 668.608 165.946C668.304 165.005 667.963 164.196 667.584 163.519C667.291 162.795 667.025 162.221 666.789 161.798L664.447 157.609C663.218 155.408 661.965 153.665 660.691 152.378C659.369 151.006 657.657 150.13 655.556 149.75C652.843 149.267 650.174 149.759 647.551 151.225L641.077 154.844L657.396 184.042Z" fill="white"/>
<path d="M744.561 158.79L732.136 140.229L714.803 147.019L718.292 169.081L704.75 174.386L688.336 71.482L700.252 66.8139L758.102 153.485L744.561 158.79ZM704.367 95.6591L711.436 134.437L725.79 128.814L704.367 95.6591Z" fill="white"/>
<path d="M781.402 40.9842L785.223 54.2614L767.893 59.248L792.222 143.803L778.246 147.824L753.917 63.2694L736.586 68.256L732.766 54.9788L781.402 40.9842Z" fill="white"/>
<path d="M821.337 32.667L828.698 73.1602L835.709 71.8858C837.14 71.6257 838.675 71.3959 840.314 71.1965C841.935 70.9018 843.639 70.7891 845.426 70.8585C847.195 70.8326 849.007 71.0451 850.863 71.4961C852.814 71.9298 854.739 72.7624 856.638 73.9938C858.425 75.1473 859.894 76.4567 861.048 77.9223C862.184 79.2925 863.081 80.7061 863.74 82.1629C864.382 83.5244 864.824 84.8729 865.067 86.2084C865.387 87.4311 865.635 88.5194 865.808 89.4733L867.941 101.206C868.392 103.687 868.63 106.353 868.656 109.206C868.76 111.946 868.118 114.921 866.73 118.129C866.253 119.3 865.547 120.562 864.61 121.914C863.751 123.155 862.55 124.408 861.007 125.674C859.541 126.827 857.629 127.963 855.27 129.081C852.989 130.087 850.227 130.885 846.984 131.474L825.235 135.428L807.028 35.268L821.337 32.667ZM837.203 119.949L843.642 118.779C844.596 118.605 845.723 118.302 847.024 117.868C848.403 117.322 849.625 116.459 850.692 115.28C851.837 113.988 852.713 112.301 853.32 110.22C853.91 108.044 853.884 105.191 853.242 101.661L852.254 96.2238C851.803 93.7437 851.183 91.6884 850.394 90.0581C849.587 88.3324 848.252 86.9492 846.388 85.9085C843.977 84.5729 841.293 84.1739 838.336 84.7114L831.039 86.0379L837.203 119.949Z" fill="white"/>
</svg>
